<svg version="1.1" id="Layer_1" xmlns="http://www.w3.org/2000/svg" xmlns:xlink="http://www.w3.org/1999/xlink" x="0px" y="0px"
	 width="100%" viewBox="0 0 2025 2057" enable-background="new 0 0 2025 2057" xml:space="preserve">
<path fill="#000000" opacity="1.000000" stroke="none" 
	d="
M1147.000000,2058.000000 
	C766.166687,2058.000000 385.833344,2057.993652 5.500024,2058.093018 
	C1.750925,2058.093994 0.906760,2057.249023 0.907289,2053.500000 
	C1.003614,1370.833374 1.003613,688.166687 0.907289,5.500013 
	C0.906760,1.751006 1.751001,0.906747 5.500013,0.907285 
	C677.500000,1.003658 1349.500000,1.003658 2021.500000,0.907285 
	C2025.249023,0.906747 2026.093140,1.751003 2026.092651,5.500012 
	C2025.996338,688.166687 2025.996460,1370.833374 2026.092773,2053.500000 
	C2026.093262,2057.249023 2025.249146,2058.094482 2021.500000,2058.093262 
	C1730.166626,2057.991699 1438.833374,2058.000000 1147.000000,2058.000000 
z"/>
<path fill="#512A88" opacity="1.000000" stroke="none" 
	d="
M550.441589,1088.135864 
	C550.611267,1087.025635 550.803406,1086.326660 551.028442,1085.356201 
	C552.022339,1073.647583 551.287720,1062.190796 551.253052,1050.326538 
	C551.610779,1047.820801 552.172913,1045.732910 552.929321,1043.334473 
	C553.969543,1033.988403 553.293823,1024.933472 553.333496,1015.458435 
	C553.425232,1014.521423 553.657104,1014.015564 554.022339,1013.253540 
	C554.932434,1000.298340 554.316895,987.587830 554.316650,974.444458 
	C553.567749,971.614807 554.410583,969.380737 554.937134,966.727417 
	C555.658630,965.489868 555.496460,964.465820 555.494385,963.486633 
	C555.443420,940.127808 555.616882,916.768677 555.275391,892.942505 
	C554.858582,885.989868 556.427795,884.244263 563.105591,884.087402 
	C564.929810,884.686768 566.442749,884.492676 567.931702,884.492737 
	C687.111450,884.500427 806.291199,884.500244 925.470947,884.500732 
	C926.137085,884.500732 926.802307,884.487000 927.904053,884.200439 
	C930.932007,883.912354 933.157776,885.118164 935.713135,886.256470 
	C937.110352,889.660095 936.189941,892.961304 936.699219,896.601379 
	C938.731934,900.164795 938.643005,903.799377 938.440552,907.113403 
	C937.849548,916.787231 938.700012,926.362061 939.522644,936.344604 
	C939.457764,938.932983 939.475708,941.138550 939.698975,943.677002 
	C940.211609,945.758484 940.567200,947.507385 940.873291,949.636841 
	C940.150024,953.763000 940.631165,957.537781 940.711792,961.664917 
	C942.456848,965.193970 942.501221,968.585693 942.442688,972.011230 
	C942.321899,979.069702 941.762329,986.137512 942.814209,993.593140 
	C942.173645,995.777527 942.600769,997.602905 942.706421,999.708374 
	C943.065918,1001.047485 943.271729,1002.081787 943.528564,1003.428345 
	C943.461365,1005.941711 943.474243,1008.143616 943.699097,1010.677612 
	C944.211609,1012.758484 944.567200,1014.507507 944.873230,1016.636963 
	C944.120667,1021.092346 944.648010,1025.195679 944.711060,1029.657593 
	C946.466614,1033.189575 946.502075,1036.582886 946.441772,1040.005127 
	C946.323242,1046.734497 945.757446,1053.473511 946.809509,1060.599365 
	C946.182922,1062.784058 946.596436,1064.605835 946.706543,1066.708862 
	C947.068176,1068.359863 947.276306,1069.706665 947.536926,1071.388184 
	C947.452820,1073.929932 947.477478,1076.138062 947.700378,1078.678955 
	C948.219543,1080.757690 948.580688,1082.504028 948.883789,1084.633057 
	C948.117859,1089.090942 948.649414,1093.194946 948.711060,1097.657471 
	C950.465698,1101.190674 950.501770,1104.584106 950.441772,1108.007568 
	C950.323853,1114.738281 949.753662,1121.479004 950.813049,1128.606445 
	C950.210266,1130.462280 950.575867,1131.961060 950.708374,1133.719971 
	C951.064819,1135.355713 951.272339,1136.708008 951.532349,1138.396606 
	C951.456482,1140.936035 951.476440,1143.140259 951.698975,1145.677002 
	C951.982971,1146.972534 952.109863,1147.935791 952.197998,1149.262329 
	C952.911133,1154.797241 952.274353,1160.002441 952.711182,1165.610107 
	C954.525513,1169.578491 954.524658,1173.294067 954.359741,1177.117188 
	C954.123413,1182.598267 954.256104,1188.095215 954.190857,1194.089233 
	C954.911255,1196.469482 954.273743,1198.441284 954.699585,1200.680664 
	C955.060974,1202.363037 955.265808,1203.716064 955.525146,1205.404907 
	C955.461182,1207.941895 955.474365,1210.143677 955.699097,1212.677612 
	C955.971497,1213.911133 956.086914,1214.812866 956.176392,1216.169434 
	C956.939880,1221.807373 956.257263,1227.026855 956.705872,1232.623535 
	C958.549561,1236.562256 958.452637,1240.345825 958.411865,1244.121094 
	C958.352661,1249.609009 958.290161,1255.097046 958.189697,1261.088379 
	C958.925781,1263.799194 958.264771,1266.089844 958.699951,1268.669312 
	C959.061829,1270.051514 959.264282,1271.090576 959.519409,1272.442871 
	C959.459290,1275.278442 959.477905,1277.801270 959.699341,1280.667847 
	C959.980652,1281.663208 960.102966,1282.315063 960.192139,1283.297607 
	C960.903015,1288.131714 960.278992,1292.673218 960.708374,1297.609863 
	C962.706848,1300.830811 962.412903,1304.092529 962.483337,1307.137817 
	C962.640991,1313.947754 962.341064,1320.768188 962.188965,1328.088623 
	C962.925781,1330.798828 962.265076,1333.087769 962.697998,1335.666016 
	C963.065308,1337.357300 963.274841,1338.704956 963.536865,1340.387817 
	C963.452759,1342.929688 963.477661,1345.137573 963.699951,1347.678345 
	C963.960449,1348.588623 964.063293,1349.166138 964.158325,1350.184082 
	C964.961487,1355.478027 964.244507,1360.372192 964.710571,1365.635498 
	C966.476440,1369.042480 966.491638,1372.329590 966.496399,1375.600342 
	C966.506287,1382.392700 966.458862,1389.184937 966.497437,1396.366455 
	C966.494690,1398.629761 966.453491,1400.503906 966.702148,1402.694336 
	C967.065491,1404.357788 967.274658,1405.705444 967.536621,1407.387939 
	C967.452637,1409.929077 967.477966,1412.136353 967.698914,1414.676758 
	C967.972107,1415.907227 968.088257,1416.804932 968.177368,1418.155518 
	C968.961609,1423.466919 968.244568,1428.365845 968.710205,1433.634521 
	C970.439636,1437.235107 970.516724,1440.645630 970.436218,1444.120605 
	C970.293640,1450.273560 970.291931,1456.429810 970.190796,1463.088745 
	C970.925903,1465.800293 970.264648,1468.090820 970.700317,1470.670044 
	C971.067261,1472.043945 971.274414,1473.074951 971.532837,1474.417114 
	C971.457703,1476.932983 971.475769,1479.138550 971.698975,1481.677002 
	C971.981323,1482.972900 972.106689,1483.936279 972.195618,1485.262939 
	C972.911316,1490.797852 972.274231,1496.002808 972.711304,1501.610352 
	C974.488953,1505.042725 974.488342,1508.331421 974.495605,1511.599121 
	C974.509888,1518.058594 974.458984,1524.518066 974.497559,1531.366699 
	C974.494934,1533.630859 974.452759,1535.505981 974.703979,1537.697021 
	C975.067261,1539.358643 975.275146,1540.704712 975.535034,1542.385498 
	C975.471985,1544.603882 975.463013,1546.488403 975.701538,1548.691650 
	C975.971436,1549.911377 976.086914,1550.813110 976.176392,1552.169556 
	C976.948792,1558.144653 976.245728,1563.699951 976.713440,1569.634155 
	C978.722473,1573.904785 978.489746,1577.983643 978.316528,1582.115234 
	C978.114624,1586.931519 978.245056,1591.761841 978.190796,1597.089478 
	C978.925720,1599.798706 978.265076,1602.087769 978.697998,1604.666016 
	C979.063538,1606.358643 979.271301,1607.707886 979.531555,1609.392334 
	C979.458130,1611.933594 979.475098,1614.140137 979.700623,1616.679443 
	C979.961243,1617.589111 980.063721,1618.166626 980.158325,1619.184204 
	C980.949158,1625.139404 980.246460,1630.689209 980.705811,1636.620361 
	C982.563049,1640.529419 982.465942,1644.294067 982.414673,1648.033691 
	C982.342468,1653.303711 981.950745,1658.564453 982.688965,1663.833984 
	C983.491211,1669.560303 981.412720,1671.745850 974.899780,1671.916992 
	C965.610535,1671.059937 956.678772,1671.595215 947.756775,1671.530273 
	C936.670959,1671.449707 925.583130,1671.407593 914.072144,1671.803467 
	C912.044861,1671.697266 910.349792,1671.585205 908.855164,1670.978882 
	C902.100830,1668.238892 895.036560,1667.310181 887.832520,1666.922974 
	C886.398010,1666.845703 884.937500,1666.219482 883.598389,1665.606934 
	C880.444824,1664.164673 877.424561,1662.222412 873.734924,1663.899048 
	C873.460144,1664.023926 872.999695,1664.037720 872.755554,1663.889282 
	C865.684387,1659.593872 856.895081,1660.963135 849.755981,1656.898193 
	C847.716614,1655.736938 845.583313,1654.960815 843.141785,1655.085815 
	C841.324707,1655.178711 839.301392,1655.222290 837.875061,1653.989868 
	C835.343567,1651.803101 831.692139,1652.533325 829.646667,1651.519287 
	C823.903015,1648.672363 817.194641,1648.990479 811.921631,1645.294800 
	C811.398865,1644.928345 810.829407,1644.039062 810.461487,1644.128906 
	C803.631287,1645.796387 799.396118,1639.148560 793.040588,1638.832031 
	C788.584229,1638.609863 785.102905,1634.796387 780.417725,1634.068359 
	C777.375977,1633.595703 774.727295,1631.678101 771.271301,1631.281494 
	C768.205811,1630.929688 764.836121,1628.600830 761.919067,1626.864380 
	C753.442810,1621.818604 743.891968,1619.244629 735.344971,1614.584595 
	C725.016663,1608.953247 714.088013,1604.384521 704.508362,1597.364746 
	C701.456970,1595.128784 697.621887,1594.201416 694.242065,1592.317749 
	C686.211487,1587.842163 678.474609,1582.855713 670.871521,1577.831543 
	C664.607178,1573.691895 657.987183,1569.979492 652.123291,1565.111572 
	C647.876038,1561.585815 642.870117,1559.007446 638.392029,1555.600220 
	C622.878601,1543.796997 607.834778,1531.483276 592.945496,1518.892212 
	C578.293823,1506.501953 564.479248,1493.344727 551.037842,1479.732544 
	C546.374390,1475.009888 541.009399,1470.579956 537.721069,1464.984253 
	C531.187744,1453.866821 519.673584,1447.155151 513.398132,1436.052246 
	C509.445068,1429.058350 502.277374,1424.599487 499.288727,1416.700806 
	C497.944550,1413.148315 493.199280,1411.014160 491.250458,1407.534546 
	C485.237366,1396.798096 477.864868,1386.929932 471.126892,1376.719116 
	C466.101807,1369.103882 461.186615,1361.248413 456.642670,1353.458374 
	C452.503571,1346.361938 448.268280,1339.085815 444.670959,1331.575562 
	C439.952789,1321.725464 434.757446,1312.080078 430.540497,1302.022583 
	C428.043823,1296.067871 425.275940,1290.181641 422.510101,1284.420654 
	C419.507599,1278.166992 418.855347,1270.959473 415.407288,1265.452515 
	C411.999298,1260.009644 411.982727,1253.697998 408.433014,1248.244995 
	C406.045349,1244.577271 404.719666,1239.037720 403.399841,1234.280151 
	C402.563019,1231.263672 403.524170,1227.858521 400.260620,1225.646729 
	C399.676819,1225.251099 399.119690,1224.081177 399.275421,1223.446533 
	C400.421967,1218.773560 397.423401,1215.194336 396.507996,1211.139526 
	C395.407471,1206.264648 393.399536,1201.792969 392.251221,1197.115234 
	C390.919647,1191.691040 388.838470,1186.168335 388.337280,1180.918213 
	C387.638397,1173.597168 383.748596,1167.119385 383.874512,1159.987427 
	C383.986420,1153.651733 381.677429,1148.170776 380.005707,1142.394897 
	C379.367157,1140.188843 379.302063,1137.955444 379.505798,1135.570557 
	C379.981415,1130.002563 380.124237,1124.587646 377.233612,1119.146362 
	C374.658661,1114.299072 376.025208,1108.388916 375.720459,1102.936157 
	C375.452881,1098.148438 377.088470,1093.306396 373.724213,1088.565430 
	C372.200409,1086.417969 373.294495,1082.412720 373.250305,1078.822754 
	C373.680054,1076.242920 373.490631,1074.071045 373.490723,1071.909424 
	C373.500610,842.912781 373.500000,613.916138 373.500061,384.919495 
	C373.500061,383.586182 373.546570,382.250824 373.489990,380.920074 
	C373.419952,379.273010 374.060455,378.421875 375.794312,378.493835 
	C376.958557,378.542206 378.127136,378.500214 379.293762,378.500214 
	C801.787537,378.500000 1224.281372,378.499146 1646.775146,378.507935 
	C1653.278931,378.508057 1652.491455,377.782623 1652.491699,384.488922 
	C1652.501465,613.485596 1652.500122,842.482239 1652.502197,1071.478882 
	C1652.502197,1073.462769 1652.461548,1075.447021 1652.618896,1077.914429 
	C1652.703247,1078.803467 1652.707764,1079.208618 1652.591797,1079.784424 
	C1650.455200,1082.912720 1652.013306,1086.254272 1651.311035,1089.791992 
	C1649.622681,1092.276489 1650.087646,1094.634277 1650.105591,1096.952759 
	C1650.177124,1106.193481 1651.285522,1115.509277 1646.596069,1124.232300 
	C1645.007324,1127.187622 1646.148438,1130.834961 1646.412720,1134.086548 
	C1646.688721,1137.482910 1646.072266,1140.557373 1645.331909,1143.783813 
	C1644.172852,1148.835815 1641.392700,1153.441040 1642.335327,1159.128418 
	C1642.905762,1162.569824 1641.609863,1166.397217 1639.484497,1169.479980 
	C1636.717773,1173.493042 1639.323730,1178.108521 1637.504517,1182.444946 
	C1633.824951,1191.215576 1632.211304,1200.677368 1629.884644,1209.893677 
	C1629.410645,1211.771729 1629.066406,1213.814697 1627.413208,1215.214233 
	C1626.145996,1216.287354 1625.744141,1217.751953 1626.161377,1219.290161 
	C1627.062988,1222.613159 1626.627686,1225.343262 1623.630859,1227.547363 
	C1622.643311,1228.273560 1622.340820,1229.827393 1622.569092,1231.239014 
	C1622.701050,1232.054688 1623.182007,1233.167847 1622.828247,1233.653320 
	C1619.076050,1238.803101 1619.698608,1245.676880 1615.990601,1250.793335 
	C1615.071655,1252.061523 1614.544189,1253.436157 1614.336548,1254.907349 
	C1613.434204,1261.298584 1610.027344,1266.788330 1607.834229,1272.700928 
	C1606.228271,1277.030396 1605.528442,1281.579590 1603.138794,1285.803589 
	C1598.834595,1293.411987 1595.665771,1301.663818 1592.040527,1309.654907 
	C1586.956665,1320.861938 1581.208374,1331.729492 1575.046021,1342.369751 
	C1568.455078,1353.750000 1562.268188,1365.338013 1555.009521,1376.376709 
	C1551.469727,1381.759644 1547.860962,1387.412109 1544.261963,1392.731934 
	C1538.981812,1400.536865 1534.795410,1409.246826 1527.450806,1415.781616 
	C1523.800659,1419.029053 1522.165771,1424.276489 1518.821167,1428.266357 
	C1509.832153,1438.989868 1500.017090,1449.131958 1491.532715,1460.079956 
	C1480.161987,1474.752197 1466.826294,1487.270752 1454.130859,1500.520020 
	C1449.664917,1505.180908 1445.256226,1510.394409 1439.765137,1513.469360 
	C1429.030518,1519.480469 1422.864136,1530.586548 1412.273071,1536.528809 
	C1404.830444,1540.704590 1399.883545,1548.086182 1391.760254,1551.707764 
	C1387.729370,1553.505005 1385.054443,1558.520630 1380.852539,1560.812378 
	C1370.596680,1566.405518 1361.309204,1573.525635 1351.606812,1579.906128 
	C1343.962280,1584.933594 1336.083740,1589.819092 1328.271851,1594.413330 
	C1321.168701,1598.590942 1313.770630,1602.626953 1306.358643,1606.454468 
	C1296.626587,1611.480225 1286.890503,1616.534668 1276.730103,1620.571655 
	C1270.850830,1622.907593 1265.192017,1625.753662 1259.531860,1628.421753 
	C1253.103638,1631.452271 1245.652100,1632.147217 1240.039307,1635.703613 
	C1234.609985,1639.143921 1227.290283,1637.582153 1223.157104,1643.266357 
	C1222.728027,1643.856445 1221.260498,1644.073853 1220.393066,1643.893921 
	C1217.387085,1643.270630 1215.149048,1645.638062 1212.995605,1645.995361 
	C1206.457397,1647.079834 1201.085083,1652.085083 1194.148926,1651.233154 
	C1193.497070,1651.153076 1192.500488,1650.897095 1192.220703,1651.213989 
	C1187.360474,1656.718262 1179.405884,1653.784790 1173.981567,1658.005615 
	C1171.879639,1659.640991 1169.084473,1660.710815 1166.023804,1659.267212 
	C1164.179688,1658.397461 1162.518921,1659.787354 1160.989868,1660.770996 
	C1157.576416,1662.966431 1154.134766,1664.638916 1149.858765,1663.221924 
	C1147.832764,1662.550537 1145.999634,1663.929321 1144.210449,1664.703735 
	C1139.482544,1666.749756 1134.793091,1667.542603 1129.466797,1667.420044 
	C1124.772583,1667.312012 1120.016724,1670.019409 1115.280518,1671.458740 
	C1114.498657,1671.696289 1113.677612,1671.805176 1112.482300,1671.962158 
	C1109.504395,1670.992798 1106.822144,1671.537842 1104.195068,1671.532471 
	C1086.723389,1671.497314 1069.251465,1671.445435 1051.345093,1671.743530 
	C1044.346191,1671.662598 1042.923828,1669.764404 1043.438232,1663.329712 
	C1043.834961,1658.364990 1043.886719,1653.324707 1043.509399,1648.362305 
	C1043.227173,1644.649780 1043.911865,1641.207031 1044.933105,1637.358765 
	C1045.938965,1632.959473 1045.313721,1628.865967 1045.328003,1624.408691 
	C1044.713135,1621.852295 1045.497681,1619.831421 1046.037842,1617.389648 
	C1046.878052,1614.855469 1046.370850,1612.642090 1046.435303,1610.088135 
	C1046.603149,1608.368286 1046.784424,1607.016357 1047.053711,1605.332275 
	C1047.822388,1603.572510 1047.403687,1602.068481 1047.310791,1600.307739 
	C1047.992676,1592.946167 1047.973755,1585.868042 1047.370117,1578.780151 
	C1047.131836,1575.983887 1047.877808,1573.323730 1048.911621,1570.356934 
	C1049.956177,1565.968018 1049.305298,1561.868774 1049.326782,1557.407349 
	C1048.676636,1554.530640 1049.748047,1552.206543 1050.047363,1549.399414 
	C1050.851196,1547.177979 1050.394165,1545.286011 1050.428711,1543.066895 
	C1050.598511,1541.366089 1050.778931,1540.019043 1051.049805,1538.341797 
	C1051.823486,1536.513672 1051.410889,1534.944824 1051.444092,1533.069824 
	C1051.821655,1525.432983 1052.032593,1518.132080 1051.371094,1510.832764 
	C1051.115234,1508.008057 1051.902588,1505.343994 1052.913696,1502.354980 
	C1053.953491,1497.967163 1053.306274,1493.869507 1053.328125,1489.409180 
	C1053.444214,1486.940552 1053.700195,1484.857300 1054.049805,1482.391113 
	C1054.874878,1479.853394 1054.372314,1477.641235 1054.435303,1475.088135 
	C1054.602661,1473.684326 1054.783447,1472.648193 1055.050903,1471.307983 
	C1055.826416,1469.576538 1055.401733,1468.070679 1055.311279,1466.308594 
	C1056.024658,1458.279541 1055.965088,1450.533691 1055.367188,1442.780762 
	C1055.151245,1439.980957 1055.870850,1437.319092 1056.918701,1434.352539 
	C1057.906128,1430.293945 1057.337769,1426.527344 1057.327637,1422.402588 
	C1057.442627,1419.940063 1057.697266,1417.856567 1058.047607,1415.390625 
	C1058.874023,1412.851685 1058.374146,1410.638306 1058.431641,1408.083374 
	C1058.599609,1406.367310 1058.782959,1405.019409 1059.054810,1403.340332 
	C1059.820679,1401.511108 1059.412231,1399.943604 1059.444092,1398.069458 
	C1059.825562,1390.102905 1060.037842,1382.471436 1059.369263,1374.842896 
	C1059.121460,1372.014404 1059.900146,1369.353271 1060.910156,1366.363403 
	C1061.936157,1362.629883 1061.329834,1359.181030 1061.321045,1355.386353 
	C1060.722412,1352.846680 1061.495483,1350.827148 1062.038818,1348.388428 
	C1062.875854,1345.852905 1062.373291,1343.638794 1062.431641,1341.083374 
	C1062.598999,1339.364624 1062.781616,1338.014038 1063.052979,1336.331665 
	C1063.822388,1334.572510 1063.403687,1333.068481 1063.310791,1331.307739 
	C1064.046997,1322.950073 1063.951416,1314.874023 1063.363159,1306.793945 
	C1063.158691,1303.987183 1063.891724,1301.333740 1064.911987,1298.361572 
	C1065.933838,1294.628296 1065.330933,1291.180298 1065.321045,1287.386353 
	C1065.430176,1285.258911 1065.683838,1283.502319 1066.039307,1281.377808 
	C1066.895752,1278.535400 1066.351318,1276.005981 1066.447144,1273.125488 
	C1066.611816,1271.703247 1066.788452,1270.659546 1067.051758,1269.309692 
	C1067.825806,1267.576050 1067.402100,1266.070557 1067.311035,1264.308594 
	C1067.999268,1256.948853 1067.926025,1249.876221 1067.388794,1242.785889 
	C1067.154541,1239.694458 1067.809204,1236.661865 1068.934204,1233.359253 
	C1069.938477,1228.959473 1069.313965,1224.865967 1069.327881,1220.408691 
	C1069.442993,1217.940186 1069.698242,1215.856812 1070.048462,1213.390625 
	C1070.876099,1210.857300 1070.369385,1208.648193 1070.439209,1206.099487 
	C1071.443726,1195.294556 1072.396973,1184.863281 1071.337769,1174.354492 
	C1071.075073,1171.747803 1071.831055,1169.170166 1072.913818,1166.354980 
	C1073.952881,1161.966309 1073.306885,1157.868042 1073.326782,1153.407227 
	C1073.441650,1150.939087 1073.697510,1148.856079 1074.048462,1146.390625 
	C1074.875122,1143.854736 1074.371582,1141.643677 1074.435547,1139.092163 
	C1074.602905,1137.373657 1074.784302,1136.022583 1075.054810,1134.340088 
	C1075.819946,1132.510498 1075.412598,1130.943359 1075.443970,1129.069458 
	C1075.821411,1121.432007 1076.031860,1114.130249 1075.371216,1106.830078 
	C1075.115845,1104.005859 1075.897461,1101.340332 1076.918823,1098.352539 
	C1077.906128,1094.293213 1077.337891,1090.525879 1077.326416,1086.400879 
	C1076.715210,1083.851196 1077.497192,1081.830322 1078.038086,1079.389160 
	C1078.876831,1076.853516 1078.372803,1074.639038 1078.431641,1072.083496 
	C1078.597290,1070.365723 1078.778198,1069.016113 1079.048340,1067.335205 
	C1079.826416,1065.576538 1079.401733,1064.070679 1079.311279,1062.308594 
	C1080.025024,1054.282471 1079.967529,1046.539062 1079.366333,1038.789429 
	C1079.148926,1035.988159 1079.879150,1033.330811 1080.908691,1030.361938 
	C1081.918823,1026.298218 1081.332764,1022.523743 1081.321533,1018.393433 
	C1081.436523,1015.934570 1081.696167,1013.853882 1082.049561,1011.390625 
	C1082.876099,1008.857300 1082.369507,1006.648132 1082.439209,1004.099426 
	C1082.607544,1002.689514 1082.788086,1001.646790 1083.058350,1000.298767 
	C1083.816772,998.567566 1083.405640,997.067810 1083.312256,995.310669 
	C1084.046631,986.953247 1083.957275,978.876526 1083.360107,970.796936 
	C1083.152222,967.984436 1083.915649,965.340332 1084.909668,962.363525 
	C1085.936890,958.629944 1085.329346,955.181091 1085.321045,951.386353 
	C1085.435181,948.934204 1085.693604,946.853210 1086.047852,944.390137 
	C1086.874878,941.853516 1086.372314,939.641418 1086.435181,937.088501 
	C1087.403564,926.619690 1088.287231,916.535706 1087.401855,906.348694 
	C1087.156250,903.522461 1088.258545,900.579102 1088.945312,897.343750 
	C1089.897827,894.262390 1089.345581,891.477295 1089.317627,888.367004 
	C1090.920532,884.708374 1094.189697,885.313049 1097.472168,884.875122 
	C1098.985352,884.345398 1100.165039,884.505615 1101.322876,884.505737 
	C1221.604858,884.518372 1341.886963,884.462280 1462.647827,884.668823 
	C1467.030273,884.712402 1470.123535,885.793213 1470.942261,890.548340 
	C1470.257935,891.977295 1470.509277,893.173584 1470.509888,894.318115 
	C1470.524170,917.950928 1470.444946,941.583801 1470.746338,965.653992 
	C1471.281372,968.465088 1471.611450,970.838684 1471.889893,973.609741 
	C1471.076294,986.706909 1471.678101,999.417664 1471.686890,1012.560608 
	C1472.174927,1013.789062 1472.505981,1014.579285 1472.833496,1015.691223 
	C1472.111084,1024.730713 1472.657104,1033.462646 1472.705811,1042.605957 
	C1473.499146,1045.090820 1474.122192,1047.156738 1474.848022,1049.566650 
	C1473.954468,1061.012451 1474.730835,1072.136230 1474.740479,1083.667480 
	C1475.085205,1085.107422 1475.230835,1086.127930 1475.481934,1087.440796 
	C1475.424194,1091.572144 1475.498901,1095.412109 1475.697510,1099.630859 
	C1475.941895,1100.432495 1476.025879,1100.854980 1476.133789,1101.600952 
	C1476.919434,1104.672974 1476.267944,1107.486206 1476.707520,1110.641357 
	C1478.103027,1114.567505 1479.300659,1118.113770 1478.519287,1122.368652 
	C1478.509521,1124.369263 1478.447021,1125.957275 1478.545166,1127.885986 
	C1477.816162,1130.297485 1479.083862,1132.181396 1479.129639,1134.532593 
	C1479.812744,1136.322632 1479.339722,1137.859741 1479.704102,1139.678223 
	C1480.778442,1142.250000 1481.690186,1144.482422 1482.740723,1147.054932 
	C1484.782837,1145.216309 1484.389038,1142.476807 1485.940186,1140.321655 
	C1486.858765,1138.591919 1486.309204,1137.047119 1486.696533,1135.229736 
	C1487.082153,1132.874512 1487.322510,1130.866333 1487.506348,1128.537354 
	C1487.485352,1126.628174 1487.556030,1125.040039 1487.451416,1123.111328 
	C1487.117432,1118.989014 1487.006714,1115.232666 1488.916504,1111.351074 
	C1489.904541,1108.282715 1489.338501,1105.489990 1489.321045,1102.372803 
	C1489.396606,1101.510864 1489.614868,1101.001831 1489.987305,1100.250366 
	C1490.918579,1096.206543 1490.337036,1092.366943 1490.441650,1088.135986 
	C1490.611206,1087.025879 1490.803345,1086.326782 1491.028320,1085.356323 
	C1492.022705,1073.647705 1491.287476,1062.191040 1491.253174,1050.326782 
	C1491.610962,1047.820923 1492.173096,1045.733032 1492.929443,1043.334473 
	C1493.972900,1034.646118 1493.296875,1026.247681 1493.320435,1017.435913 
	C1493.417969,1015.889893 1493.665283,1014.768799 1494.034180,1013.322510 
	C1494.932373,1000.298401 1494.317017,987.587830 1494.316650,974.444519 
	C1493.535400,971.838745 1494.607788,969.900269 1495.017822,967.479065 
	C1495.741699,966.025818 1495.490845,964.828552 1495.490356,963.683228 
	C1495.474609,921.721802 1495.554443,879.760315 1495.253906,837.353821 
	C1494.716187,834.864746 1494.383545,832.820740 1494.106445,830.384766 
	C1494.923706,817.293091 1494.321899,804.582336 1494.313110,791.439392 
	C1493.823730,789.894714 1493.491211,788.788208 1493.164307,787.334351 
	C1493.908813,778.601990 1493.331665,770.201660 1493.294189,761.392456 
	C1492.436035,758.925110 1491.748291,756.874878 1491.054932,754.457092 
	C1492.040405,742.654602 1491.277588,731.198792 1491.259521,719.333679 
	C1490.904419,718.203735 1490.748291,717.494324 1490.502441,716.525879 
	C1490.575684,712.427979 1490.501221,708.588013 1490.302490,704.369202 
	C1489.826782,703.510681 1489.511353,703.031189 1489.186768,702.264282 
	C1489.859497,699.224915 1489.368530,696.433228 1489.290283,693.319580 
	C1488.435181,690.926880 1487.747803,688.875793 1487.054932,686.457092 
	C1488.047241,675.007385 1487.285889,663.904358 1487.180908,652.431885 
	C1486.916016,652.051453 1486.959351,652.040222 1486.953369,652.061768 
	C1485.615479,651.026733 1484.053101,651.523376 1482.604614,651.523254 
	C1168.867920,651.500427 855.131226,651.497742 541.394531,651.500549 
	C540.894226,651.500549 540.395386,651.528748 539.474731,651.816040 
	C539.053528,652.082703 539.040710,652.039185 539.062622,652.045044 
	C537.752441,658.936951 538.783630,665.888916 538.529602,672.806274 
	C538.389587,676.619080 538.447693,680.443359 538.747070,684.676880 
	C538.318420,687.474548 537.685181,689.857361 536.964417,692.607788 
	C536.076416,696.034180 536.725403,699.157349 536.310547,702.635498 
	C536.122192,703.195862 536.088013,703.360779 535.956055,703.758667 
	C535.081421,707.793335 535.663086,711.633118 535.558350,715.864136 
	C535.370056,717.473755 535.159363,718.672302 534.892944,720.173096 
	C534.118347,731.153931 534.610107,741.842102 534.808655,752.939148 
	C535.249695,755.906616 533.628601,757.933716 532.963379,760.618408 
	C532.033203,770.073364 532.715881,779.190796 532.530457,788.752808 
	C532.373474,789.658875 532.202332,790.108765 531.937744,790.780640 
	C531.067566,803.701660 531.683105,816.412170 531.683350,829.555542 
	C532.625977,832.405884 530.815491,834.529297 531.056946,837.268433 
	C530.339478,838.516113 530.504578,839.545959 530.505493,840.530701 
	C530.542664,882.181335 530.412476,923.832031 530.802368,965.914185 
	C531.342102,968.637756 531.645264,970.929749 531.893311,973.614380 
	C531.076294,986.706909 531.678162,999.417786 531.686890,1012.560791 
	C532.027710,1013.447510 532.211609,1013.896057 532.474976,1014.573608 
	C532.452393,1023.927917 532.488708,1033.053223 532.705505,1042.601807 
	C533.499084,1045.090942 534.122253,1047.156616 534.848145,1049.566284 
	C533.940491,1061.712524 534.723206,1073.535034 534.832764,1085.721069 
	C535.231384,1086.503174 535.349670,1086.911255 535.527588,1087.526123 
	C535.424438,1091.572021 535.498657,1095.411987 535.697632,1099.630859 
	C535.923096,1100.164917 535.988342,1100.319946 536.104980,1100.722046 
	C536.931946,1104.035156 536.259399,1107.160767 536.707336,1110.636475 
	C538.103088,1114.567749 539.300537,1118.114014 538.519409,1122.368896 
	C538.509277,1124.369385 538.447266,1125.957275 538.545227,1127.885986 
	C537.748657,1130.311035 539.230591,1132.165405 539.151367,1134.530518 
	C539.812500,1136.322754 539.339966,1137.859863 539.703979,1139.678467 
	C540.809937,1142.218994 541.753174,1144.420044 542.819946,1146.909302 
	C544.768494,1145.192993 544.416565,1142.477173 545.940063,1140.321777 
	C546.858765,1138.591919 546.309143,1137.047241 546.696533,1135.229858 
	C547.082031,1132.874512 547.322388,1130.866333 547.506226,1128.537354 
	C547.485413,1126.628174 547.555908,1125.040039 547.451416,1123.111450 
	C547.119324,1118.990356 547.004517,1115.234497 548.916626,1111.354980 
	C549.917297,1108.610718 549.339417,1106.133423 549.314026,1103.348145 
	C548.978882,1102.093140 549.122314,1101.262573 549.964355,1100.286377 
	C550.918579,1096.206787 550.336975,1092.366943 550.441589,1088.135864 
z"/>
<path fill="#A9A9A9" opacity="1.000000" stroke="none" 
	d="
M1652.820312,1077.908447 
	C1651.438110,1075.866089 1652.028809,1073.151855 1652.028442,1070.528076 
	C1651.997681,842.719238 1652.005005,614.910400 1651.982422,387.101593 
	C1651.981445,377.890320 1653.095825,379.018372 1644.130249,379.017914 
	C1223.342163,378.997375 802.554138,379.000000 381.766052,379.000427 
	C380.432861,379.000427 379.091370,379.103119 377.768250,378.989166 
	C374.997772,378.750671 373.765015,379.869904 373.983734,382.707886 
	C374.124146,384.529938 374.000427,386.372040 374.000427,388.205170 
	C373.999969,615.347412 374.000977,842.489624 373.988617,1069.631836 
	C373.988495,1072.291016 373.816772,1074.950073 373.512421,1078.002197 
	C373.199768,1076.405396 373.012451,1074.415771 373.012329,1072.426025 
	C372.999237,843.099548 373.016357,613.773071 372.892303,384.446686 
	C372.889587,379.431580 373.880371,377.866821 379.266205,377.868622 
	C801.920166,378.011749 1224.574219,378.002167 1647.228149,377.963409 
	C1650.814453,377.963074 1653.147339,377.707886 1653.143555,382.941132 
	C1652.976929,613.767456 1652.999146,844.593872 1652.996216,1075.420288 
	C1652.996216,1076.086304 1652.960938,1076.752441 1652.820312,1077.908447 
z"/>
<path fill="#242424" opacity="1.000000" stroke="none" 
	d="
M539.516724,652.072998 
	C541.593384,650.181458 544.533997,651.041199 547.281189,651.040649 
	C784.849915,650.996704 1022.418701,650.999817 1259.987427,650.999756 
	C1333.124023,650.999756 1406.260498,650.996033 1479.397095,651.019226 
	C1481.704956,651.019958 1484.068359,650.616577 1486.629395,651.822632 
	C1484.781006,652.055542 1482.614868,652.003357 1480.448608,652.003296 
	C1168.791992,651.999634 857.135315,651.999695 545.478699,652.002441 
	C543.645752,652.002441 541.812805,652.042175 539.516724,652.072998 
z"/>
<path fill="#242424" opacity="1.000000" stroke="none" 
	d="
M1462.750732,884.615601 
	C1461.296265,884.872742 1459.465942,884.991394 1457.635498,884.991577 
	C1339.529541,885.000610 1221.423462,885.000488 1103.317505,884.995361 
	C1101.819336,884.995300 1100.321289,884.921082 1098.343750,884.844360 
	C1100.224365,883.655273 1102.764648,884.024048 1105.233154,884.023560 
	C1222.125488,884.001221 1339.017822,884.001587 1455.910156,884.021118 
	C1458.065063,884.021484 1460.219849,884.282410 1462.750732,884.615601 
z"/>
<path fill="#242424" opacity="1.000000" stroke="none" 
	d="
M927.840820,883.958069 
	C926.409607,885.318665 924.185669,884.986755 922.047363,884.987000 
	C804.441895,885.000549 686.836365,885.000000 569.230896,884.981995 
	C567.576477,884.981689 565.922058,884.742676 563.873413,884.380737 
	C567.810242,884.097900 572.141235,884.007629 576.472290,884.006775 
	C693.428223,883.983032 810.384094,883.968445 927.840820,883.958069 
z"/>
<path fill="#242424" opacity="1.000000" stroke="none" 
	d="
M1495.010498,837.382812 
	C1496.226929,838.886353 1495.988892,841.087219 1495.989624,843.230164 
	C1496.003296,882.460266 1496.006592,921.690369 1495.976562,960.920471 
	C1495.975220,962.731201 1495.640869,964.541626 1495.255493,966.720825 
	C1495.023682,924.011963 1494.997925,880.934387 1495.010498,837.382812 
z"/>
<path fill="#242424" opacity="1.000000" stroke="none" 
	d="
M531.045349,965.844727 
	C529.786255,964.580017 530.012451,962.537903 530.011841,960.561035 
	C529.999268,921.489685 529.995667,882.418335 530.026855,843.346985 
	C530.028137,841.708191 530.383240,840.069641 530.806152,838.042908 
	C531.043091,880.217773 531.047424,922.780762 531.045349,965.844727 
z"/>
<path fill="#242424" opacity="1.000000" stroke="none" 
	d="
M1470.974365,965.616577 
	C1469.967773,964.808044 1470.017578,963.289124 1470.017212,961.800781 
	C1470.010498,939.559692 1470.008179,917.318542 1470.039429,895.077454 
	C1470.041138,893.932800 1470.354858,892.788513 1470.734131,891.278259 
	C1470.962524,915.655579 1470.979980,940.398621 1470.974365,965.616577 
z"/>
<path fill="#242424" opacity="1.000000" stroke="none" 
	d="
M555.119263,892.982178 
	C555.992676,893.624084 555.971924,894.976746 555.972290,896.300598 
	C555.978271,918.416199 555.977295,940.531799 555.942871,962.647339 
	C555.941406,963.621521 555.606201,964.595154 555.193848,965.957092 
	C555.007385,942.059937 555.053589,917.774658 555.119263,892.982178 
z"/>
<path fill="#242424" opacity="1.000000" stroke="none" 
	d="
M1051.385010,1671.968262 
	C1052.189697,1670.948853 1053.711060,1671.017700 1055.196777,1671.017212 
	C1072.946899,1671.010864 1090.696899,1671.011108 1108.447021,1671.042603 
	C1109.422852,1671.044312 1110.398315,1671.336914 1111.731934,1671.722412 
	C1092.013062,1671.964111 1071.936401,1671.977295 1051.385010,1671.968262 
z"/>
<path fill="#242424" opacity="1.000000" stroke="none" 
	d="
M914.149292,1672.042969 
	C914.578430,1671.719360 915.509155,1671.125000 916.439880,1671.125000 
	C935.538452,1671.125244 954.640381,1670.552856 974.129211,1671.623779 
	C954.566040,1671.922607 934.608521,1671.985718 914.149292,1672.042969 
z"/>
<path fill="#8A8A8A" opacity="1.000000" stroke="none" 
	d="
M1494.095459,974.470825 
	C1495.737427,977.295105 1494.945190,980.799988 1494.951294,984.194336 
	C1494.968140,993.565735 1494.752197,1002.937561 1494.392090,1012.653320 
	C1494.113281,1000.310364 1494.070923,987.623352 1494.095459,974.470825 
z"/>
<path fill="#8A8A8A" opacity="1.000000" stroke="none" 
	d="
M531.904541,829.529297 
	C530.262512,826.704956 531.054504,823.200073 531.048401,819.805664 
	C531.031433,810.434265 531.247803,801.062439 531.608032,791.346680 
	C531.886658,803.689697 531.929077,816.376770 531.904541,829.529297 
z"/>
<path fill="#8A8A8A" opacity="1.000000" stroke="none" 
	d="
M1494.093628,791.467407 
	C1495.728760,794.291016 1494.945679,797.796265 1494.952148,801.191711 
	C1494.969849,810.563293 1494.758179,819.935364 1494.399536,829.650024 
	C1494.118286,817.306458 1494.074707,804.620056 1494.093628,791.467407 
z"/>
<path fill="#8A8A8A" opacity="1.000000" stroke="none" 
	d="
M1471.906372,1012.532593 
	C1470.271240,1009.708984 1471.054321,1006.203735 1471.047852,1002.808289 
	C1471.030151,993.436707 1471.241821,984.064636 1471.600464,974.349976 
	C1471.881714,986.693542 1471.925293,999.379944 1471.906372,1012.532593 
z"/>
<path fill="#8A8A8A" opacity="1.000000" stroke="none" 
	d="
M554.095459,974.470703 
	C555.737488,977.295044 554.945435,980.799927 554.951599,984.194336 
	C554.968628,993.565735 554.752258,1002.937561 554.391968,1012.653320 
	C554.113342,1000.310303 554.070923,987.623230 554.095459,974.470703 
z"/>
<path fill="#8A8A8A" opacity="1.000000" stroke="none" 
	d="
M531.906311,1012.532715 
	C530.271179,1009.709167 531.054077,1006.203857 531.047668,1002.808411 
	C531.029907,993.436707 531.241760,984.064636 531.600464,974.349854 
	C531.881714,986.693481 531.925232,999.379944 531.906311,1012.532715 
z"/>
<path fill="#242424" opacity="1.000000" stroke="none" 
	d="
M535.165588,1085.614258 
	C533.023499,1074.310059 533.941345,1062.475952 534.744385,1050.278687 
	C535.040039,1061.651123 535.129028,1073.392212 535.165588,1085.614258 
z"/>
<path fill="#242424" opacity="1.000000" stroke="none" 
	d="
M551.010864,1050.382690 
	C552.911011,1054.537842 551.912720,1059.378296 551.927551,1064.107300 
	C551.948669,1070.854736 552.567200,1077.631226 551.277100,1084.721924 
	C551.031982,1073.675415 551.002625,1062.266113 551.010864,1050.382690 
z"/>
<path fill="#242424" opacity="1.000000" stroke="none" 
	d="
M1491.011230,1050.382812 
	C1492.911133,1054.538086 1491.912476,1059.378540 1491.927246,1064.107544 
	C1491.948364,1070.854980 1492.567383,1077.631348 1491.276978,1084.722168 
	C1491.031982,1073.675537 1491.002686,1062.266235 1491.011230,1050.382812 
z"/>
<path fill="#242424" opacity="1.000000" stroke="none" 
	d="
M1491.025635,719.386719 
	C1492.897461,723.204712 1491.935791,727.718994 1491.926880,732.113098 
	C1491.912476,739.190674 1492.621460,746.297546 1491.255859,753.720947 
	C1491.029785,742.679749 1491.010376,731.270081 1491.025635,719.386719 
z"/>
<path fill="#242424" opacity="1.000000" stroke="none" 
	d="
M1474.959961,1083.612793 
	C1473.111694,1080.481201 1474.048096,1076.613281 1474.070679,1072.888550 
	C1474.115356,1065.476196 1473.388428,1058.037598 1474.744141,1050.279053 
	C1474.960571,1060.986572 1474.970459,1072.062500 1474.959961,1083.612793 
z"/>
<path fill="#242424" opacity="1.000000" stroke="none" 
	d="
M1486.925537,652.517578 
	C1488.312500,653.559875 1488.023193,655.452332 1487.974243,657.225281 
	C1487.715576,666.599731 1488.653687,675.996216 1487.255859,685.720947 
	C1487.011353,675.054199 1486.973267,664.018921 1486.925537,652.517578 
z"/>
<path fill="#242424" opacity="1.000000" stroke="none" 
	d="
M538.973450,684.616821 
	C537.078735,681.153992 538.054871,676.964539 538.077576,672.914001 
	C538.115356,666.180237 537.323303,659.412476 538.822754,652.378296 
	C539.054749,662.747864 539.025024,673.444885 538.973450,684.616821 
z"/>
<path fill="#242424" opacity="1.000000" stroke="none" 
	d="
M535.042969,752.850586 
	C533.164551,749.920288 534.082092,746.196594 534.053162,742.613770 
	C533.995667,735.499207 534.246521,728.382202 534.603516,720.870789 
	C534.907776,731.099915 534.978394,741.724426 535.042969,752.850586 
z"/>
<path fill="#858585" opacity="1.000000" stroke="none" 
	d="
M553.131531,1015.491882 
	C554.750732,1024.110962 554.009888,1033.230347 553.370911,1042.683960 
	C553.105652,1034.001343 553.087646,1024.978882 553.131531,1015.491882 
z"/>
<path fill="#858585" opacity="1.000000" stroke="none" 
	d="
M532.932251,1042.556396 
	C531.122864,1033.922974 532.134094,1024.762695 532.427429,1015.211426 
	C533.548584,1023.884216 532.749084,1032.994263 532.932251,1042.556396 
z"/>
<path fill="#858585" opacity="1.000000" stroke="none" 
	d="
M532.708618,788.744385 
	C531.582336,780.029846 531.824585,770.843628 532.629028,761.315796 
	C532.875061,770.077332 532.873840,779.178589 532.708618,788.744385 
z"/>
<path fill="#858585" opacity="1.000000" stroke="none" 
	d="
M1472.932373,1042.556152 
	C1471.134155,1034.285034 1472.048218,1025.496216 1472.610107,1016.365479 
	C1472.882812,1024.704468 1472.935669,1033.395996 1472.932373,1042.556152 
z"/>
<path fill="#858585" opacity="1.000000" stroke="none" 
	d="
M1493.067627,761.443970 
	C1494.838135,769.381226 1493.969727,777.837036 1493.390991,786.635010 
	C1493.117065,778.628906 1493.064331,770.270752 1493.067627,761.443970 
z"/>
<path fill="#858585" opacity="1.000000" stroke="none" 
	d="
M1493.104980,1017.476196 
	C1494.794800,1025.429321 1493.990234,1033.890625 1493.370850,1042.683960 
	C1493.095459,1034.662964 1493.067383,1026.302124 1493.104980,1017.476196 
z"/>
<path fill="#808080" opacity="1.000000" stroke="none" 
	d="
M976.948486,1569.568604 
	C974.941833,1564.593384 976.456055,1558.988281 976.131409,1553.047363 
	C977.875854,1558.041626 976.623718,1563.613770 976.948486,1569.568604 
z"/>
<path fill="#808080" opacity="1.000000" stroke="none" 
	d="
M980.937256,1636.558105 
	C978.964355,1631.582886 980.452454,1625.984375 980.131470,1620.047241 
	C981.870361,1625.039307 980.627502,1630.607056 980.937256,1636.558105 
z"/>
<path fill="#808080" opacity="1.000000" stroke="none" 
	d="
M956.936951,1232.558594 
	C954.992432,1227.919067 956.416687,1222.651489 956.131104,1217.046509 
	C957.967346,1221.696289 956.587952,1226.943726 956.936951,1232.558594 
z"/>
<path fill="#808080" opacity="1.000000" stroke="none" 
	d="
M968.941833,1433.565674 
	C967.001465,1429.257324 968.417786,1424.309204 968.130310,1419.030396 
	C969.899536,1423.353027 968.600769,1428.276733 968.941833,1433.565674 
z"/>
<path fill="#808080" opacity="1.000000" stroke="none" 
	d="
M972.945801,1501.567627 
	C970.983765,1496.973877 972.427185,1491.744019 972.132629,1486.114990 
	C973.953674,1490.701904 972.576782,1495.950684 972.945801,1501.567627 
z"/>
<path fill="#808080" opacity="1.000000" stroke="none" 
	d="
M964.942505,1365.566284 
	C963.016724,1361.261475 964.434387,1356.318115 964.131653,1351.045410 
	C965.880005,1355.364990 964.591064,1360.283081 964.942505,1365.566284 
z"/>
<path fill="#808080" opacity="1.000000" stroke="none" 
	d="
M952.945740,1165.567505 
	C950.973755,1160.974243 952.416443,1155.744019 952.132019,1150.114258 
	C953.955688,1154.701294 952.589539,1159.949585 952.945740,1165.567505 
z"/>
<path fill="#808080" opacity="1.000000" stroke="none" 
	d="
M960.938599,1297.565552 
	C959.079041,1293.640747 960.396423,1289.072998 960.134338,1284.112793 
	C961.921631,1288.027222 960.583313,1292.618896 960.938599,1297.565552 
z"/>
<path fill="#808080" opacity="1.000000" stroke="none" 
	d="
M948.941895,1097.568115 
	C947.205688,1093.984985 948.040100,1089.842651 948.617798,1085.366943 
	C948.884338,1089.045654 948.942871,1093.075562 948.941895,1097.568115 
z"/>
<path fill="#858585" opacity="1.000000" stroke="none" 
	d="
M1049.123535,1557.481201 
	C1050.517090,1561.095093 1050.106689,1565.229980 1049.373291,1569.696289 
	C1049.101685,1565.996948 1049.081421,1561.968750 1049.123535,1557.481201 
z"/>
<path fill="#858585" opacity="1.000000" stroke="none" 
	d="
M1073.123535,1153.481201 
	C1074.517456,1157.093628 1074.104492,1161.226685 1073.373047,1165.692749 
	C1073.103394,1161.995605 1073.082397,1157.968018 1073.123535,1153.481201 
z"/>
<path fill="#858585" opacity="1.000000" stroke="none" 
	d="
M1069.126221,1220.482666 
	C1070.544678,1224.088989 1070.063232,1228.218872 1069.378296,1232.680786 
	C1069.112061,1228.989990 1069.088379,1224.965820 1069.126221,1220.482666 
z"/>
<path fill="#808080" opacity="1.000000" stroke="none" 
	d="
M944.941895,1029.568115 
	C943.205383,1025.985962 944.051331,1021.844727 944.618164,1017.369751 
	C944.882874,1021.046814 944.942200,1025.076172 944.941895,1029.568115 
z"/>
<path fill="#858585" opacity="1.000000" stroke="none" 
	d="
M1053.126709,1489.482910 
	C1054.499634,1493.095703 1054.092896,1497.227905 1053.372803,1501.692749 
	C1053.104614,1497.996094 1053.084839,1493.969116 1053.126709,1489.482910 
z"/>
<path fill="#858585" opacity="1.000000" stroke="none" 
	d="
M1045.126343,1624.482666 
	C1046.547363,1628.088989 1046.068848,1632.218994 1045.378418,1636.680908 
	C1045.111938,1632.989868 1045.088257,1628.965820 1045.126343,1624.482666 
z"/>
<path fill="#8A8A8A" opacity="1.000000" stroke="none" 
	d="
M1475.912109,1099.548096 
	C1474.294922,1096.250366 1475.115112,1092.370483 1475.432861,1088.128540 
	C1476.445923,1091.493164 1475.818970,1095.302612 1475.912109,1099.548096 
z"/>
<path fill="#8A8A8A" opacity="1.000000" stroke="none" 
	d="
M1490.256470,1088.186768 
	C1491.370605,1091.581421 1491.143066,1095.457520 1490.376221,1099.673340 
	C1490.125610,1096.221558 1490.109741,1092.435059 1490.256470,1088.186768 
z"/>
<path fill="#8A8A8A" opacity="1.000000" stroke="none" 
	d="
M550.256592,1088.186646 
	C551.370483,1091.581421 551.143311,1095.457642 550.376343,1099.673584 
	C550.125793,1096.221802 550.109863,1092.435181 550.256592,1088.186646 
z"/>
<path fill="#8A8A8A" opacity="1.000000" stroke="none" 
	d="
M535.912048,1099.548096 
	C534.294861,1096.250366 535.115173,1092.370361 535.432617,1088.128418 
	C536.446289,1091.493042 535.819031,1095.302612 535.912048,1099.548096 
z"/>
<path fill="#858585" opacity="1.000000" stroke="none" 
	d="
M1057.126343,1422.479980 
	C1058.521484,1425.758179 1058.070923,1429.560425 1057.373169,1433.691406 
	C1057.107178,1430.325439 1057.085938,1426.630981 1057.126343,1422.479980 
z"/>
<path fill="#858585" opacity="1.000000" stroke="none" 
	d="
M1077.123535,1086.478638 
	C1078.532349,1089.756470 1078.061890,1093.559937 1077.373169,1097.691162 
	C1077.106079,1094.324951 1077.083740,1090.630127 1077.123535,1086.478638 
z"/>
<path fill="#808080" opacity="1.000000" stroke="none" 
	d="
M1081.113525,1018.472290 
	C1082.567871,1021.753967 1082.095581,1025.564697 1081.366699,1029.702637 
	C1081.094849,1026.329590 1081.072388,1022.629395 1081.113525,1018.472290 
z"/>
<path fill="#808080" opacity="1.000000" stroke="none" 
	d="
M940.941528,961.571533 
	C939.241089,958.321289 940.062073,954.508545 940.618408,950.366333 
	C940.882507,953.715332 940.941162,957.413330 940.941528,961.571533 
z"/>
<path fill="#8A8A8A" opacity="1.000000" stroke="none" 
	d="
M535.743408,715.813477 
	C534.629578,712.418579 534.856628,708.542419 535.623657,704.326477 
	C535.874268,707.778320 535.890198,711.565002 535.743408,715.813477 
z"/>
<path fill="#8A8A8A" opacity="1.000000" stroke="none" 
	d="
M1490.087891,704.451965 
	C1491.705078,707.749756 1490.885010,711.629578 1490.567383,715.871582 
	C1489.553833,712.506958 1490.181152,708.697388 1490.087891,704.451965 
z"/>
<path fill="#808080" opacity="1.000000" stroke="none" 
	d="
M1065.113281,1287.469727 
	C1066.523071,1290.420410 1066.091797,1293.899780 1065.364380,1297.704834 
	C1065.095825,1294.660278 1065.072754,1291.292114 1065.113281,1287.469727 
z"/>
<path fill="#808080" opacity="1.000000" stroke="none" 
	d="
M1061.113403,1355.469727 
	C1062.523315,1358.421997 1062.096680,1361.903687 1061.366089,1365.708984 
	C1061.094604,1362.661499 1061.072266,1359.292847 1061.113403,1355.469727 
z"/>
<path fill="#808080" opacity="1.000000" stroke="none" 
	d="
M1085.113281,951.469727 
	C1086.523804,954.421814 1086.092285,957.903198 1085.364502,961.708435 
	C1085.094116,958.661621 1085.071899,955.292908 1085.113281,951.469727 
z"/>
<path fill="#8A8A8A" opacity="1.000000" stroke="none" 
	d="
M1651.539551,1089.987671 
	C1651.090942,1086.954590 1650.328613,1083.649902 1652.129150,1080.221558 
	C1652.279785,1083.223145 1653.014648,1086.543701 1651.539551,1089.987671 
z"/>
<path fill="#858585" opacity="1.000000" stroke="none" 
	d="
M936.924683,896.564209 
	C935.222046,893.942261 936.298157,890.625854 935.981934,886.956970 
	C938.019897,889.508911 936.575500,892.909912 936.924683,896.564209 
z"/>
<path fill="#858585" opacity="1.000000" stroke="none" 
	d="
M536.459534,702.750488 
	C536.063721,699.894043 535.672302,696.750000 536.629456,693.303955 
	C536.838745,696.140381 536.800659,699.305237 536.459534,702.750488 
z"/>
<path fill="#858585" opacity="1.000000" stroke="none" 
	d="
M536.933228,1110.581787 
	C535.231018,1108.085693 536.261902,1104.919067 536.127991,1101.411255 
	C537.930908,1103.889282 536.593689,1107.092285 536.933228,1110.581787 
z"/>
<path fill="#858585" opacity="1.000000" stroke="none" 
	d="
M1476.933350,1110.587769 
	C1475.291626,1108.410278 1476.237183,1105.549316 1476.117676,1102.359985 
	C1477.901733,1104.517822 1476.624146,1107.417114 1476.933350,1110.587769 
z"/>
<path fill="#8A8A8A" opacity="1.000000" stroke="none" 
	d="
M1089.105835,888.461548 
	C1090.562988,890.737305 1089.980469,893.563293 1089.382935,896.687805 
	C1089.111938,894.300903 1089.075684,891.603821 1089.105835,888.461548 
z"/>
<path fill="#858585" opacity="1.000000" stroke="none" 
	d="
M1489.066284,693.426636 
	C1490.656250,695.683289 1489.982300,698.516357 1489.391724,701.654541 
	C1489.121704,699.276428 1489.065796,696.575928 1489.066284,693.426636 
z"/>
<path fill="#858585" opacity="1.000000" stroke="none" 
	d="
M1489.111206,1102.465454 
	C1490.531616,1104.753906 1490.068604,1107.582397 1489.368408,1110.715088 
	C1489.096069,1108.316895 1489.070190,1105.613892 1489.111206,1102.465454 
z"/>
<path fill="#808080" opacity="1.000000" stroke="none" 
	d="
M978.918640,1604.606445 
	C977.435791,1602.918335 978.230469,1600.583130 978.135986,1597.970215 
	C979.749573,1599.630127 978.683899,1602.002319 978.918640,1604.606445 
z"/>
<path fill="#858585" opacity="1.000000" stroke="none" 
	d="
M1066.273315,1273.190308 
	C1067.168945,1275.285278 1067.194824,1277.841309 1066.382324,1280.710815 
	C1066.131226,1278.551147 1066.121338,1276.092407 1066.273315,1273.190308 
z"/>
<path fill="#858585" opacity="1.000000" stroke="none" 
	d="
M959.922974,1280.561035 
	C958.336182,1278.606934 959.155762,1276.027954 959.435303,1273.127686 
	C959.710571,1275.207642 959.849060,1277.659058 959.922974,1280.561035 
z"/>
<path fill="#808080" opacity="1.000000" stroke="none" 
	d="
M958.922119,1268.608887 
	C957.426025,1266.922485 958.229309,1264.583984 958.134521,1261.969482 
	C959.759094,1263.628418 958.679199,1266.004272 958.922119,1268.608887 
z"/>
<path fill="#808080" opacity="1.000000" stroke="none" 
	d="
M962.918640,1335.606445 
	C961.435547,1333.918457 962.230713,1331.583252 962.135986,1328.970459 
	C963.749573,1330.630127 962.683899,1333.002441 962.918640,1335.606445 
z"/>
<path fill="#808080" opacity="1.000000" stroke="none" 
	d="
M970.922791,1470.609375 
	C969.415771,1468.924072 970.234863,1466.584473 970.135864,1463.970459 
	C971.746948,1465.630737 970.690125,1468.003662 970.922791,1470.609375 
z"/>
<path fill="#858585" opacity="1.000000" stroke="none" 
	d="
M549.099243,1103.448486 
	C550.514893,1105.410278 550.050659,1107.921753 549.368164,1110.728027 
	C549.092651,1108.646118 549.062134,1106.267700 549.099243,1103.448486 
z"/>
<path fill="#808080" opacity="1.000000" stroke="none" 
	d="
M954.918335,1200.625000 
	C953.522217,1199.253540 954.208923,1197.238037 954.138672,1194.957031 
	C955.666321,1196.293213 954.730408,1198.353638 954.918335,1200.625000 
z"/>
<path fill="#858585" opacity="1.000000" stroke="none" 
	d="
M963.921997,1347.562500 
	C962.412231,1345.927979 963.115784,1343.663696 963.446533,1341.082886 
	C963.721741,1342.853271 963.854065,1344.983765 963.921997,1347.562500 
z"/>
<path fill="#858585" opacity="1.000000" stroke="none" 
	d="
M1062.257080,1341.155762 
	C1063.172363,1342.933838 1063.170166,1345.175537 1062.381592,1347.721680 
	C1062.127197,1345.871704 1062.112549,1343.734009 1062.257080,1341.155762 
z"/>
<path fill="#858585" opacity="1.000000" stroke="none" 
	d="
M979.923584,1616.563477 
	C978.395813,1614.932373 979.124878,1612.666504 979.442200,1610.087769 
	C979.718872,1611.856934 979.853638,1613.986206 979.923584,1616.563477 
z"/>
<path fill="#858585" opacity="1.000000" stroke="none" 
	d="
M967.919922,1414.561279 
	C966.420898,1412.925781 967.110779,1410.663208 967.446533,1408.082764 
	C967.720886,1409.852905 967.852417,1411.982910 967.919922,1414.561279 
z"/>
<path fill="#858585" opacity="1.000000" stroke="none" 
	d="
M1058.257080,1408.155762 
	C1059.173218,1409.932739 1059.169312,1412.173096 1058.381470,1414.718994 
	C1058.128296,1412.870728 1058.113037,1410.733398 1058.257080,1408.155762 
z"/>
<path fill="#858585" opacity="1.000000" stroke="none" 
	d="
M1046.260376,1610.159668 
	C1047.163574,1611.938843 1047.181641,1614.179321 1046.382080,1616.723633 
	C1046.126831,1614.873291 1046.112915,1612.736328 1046.260376,1610.159668 
z"/>
<path fill="#858585" opacity="1.000000" stroke="none" 
	d="
M1054.260742,1475.159790 
	C1055.164673,1476.937134 1055.172729,1479.175537 1054.381348,1481.719238 
	C1054.128906,1479.871826 1054.114258,1477.735474 1054.260742,1475.159790 
z"/>
<path fill="#858585" opacity="1.000000" stroke="none" 
	d="
M971.920044,1481.561523 
	C970.417419,1479.928345 971.117798,1477.666260 971.442749,1475.088135 
	C971.717468,1476.856567 971.850769,1478.984985 971.920044,1481.561523 
z"/>
<path fill="#858585" opacity="1.000000" stroke="none" 
	d="
M1070.267090,1206.171021 
	C1071.136963,1207.946899 1071.178589,1210.180786 1070.381348,1212.719971 
	C1070.131470,1210.875366 1070.119385,1208.742554 1070.267090,1206.171021 
z"/>
<path fill="#858585" opacity="1.000000" stroke="none" 
	d="
M1078.257080,1072.155762 
	C1079.168457,1073.934448 1079.177490,1076.176392 1078.381836,1078.722900 
	C1078.126587,1076.872070 1078.112183,1074.734253 1078.257080,1072.155762 
z"/>
<path fill="#858585" opacity="1.000000" stroke="none" 
	d="
M947.922974,1078.562988 
	C946.402283,1076.929321 947.119568,1074.663574 947.446533,1072.083008 
	C947.722107,1073.853516 947.854797,1075.984009 947.922974,1078.562988 
z"/>
<path fill="#858585" opacity="1.000000" stroke="none" 
	d="
M939.920044,943.561401 
	C938.418518,941.928162 939.122498,939.665833 939.442749,937.088074 
	C939.717529,938.856567 939.850830,940.984924 939.920044,943.561401 
z"/>
<path fill="#858585" opacity="1.000000" stroke="none" 
	d="
M1086.260498,937.160095 
	C1087.164062,938.937378 1087.167847,941.175903 1086.381470,943.719360 
	C1086.128906,941.871948 1086.114136,939.735718 1086.260498,937.160095 
z"/>
<path fill="#858585" opacity="1.000000" stroke="none" 
	d="
M1082.267090,1004.171082 
	C1083.136963,1005.946899 1083.178589,1008.180725 1082.381348,1010.719971 
	C1082.131470,1008.875427 1082.119385,1006.742676 1082.267090,1004.171082 
z"/>
<path fill="#858585" opacity="1.000000" stroke="none" 
	d="
M943.920044,1010.562012 
	C942.410706,1008.932922 943.137390,1006.673645 943.442444,1004.100952 
	C943.714417,1005.865234 943.849243,1007.989929 943.920044,1010.562012 
z"/>
<path fill="#858585" opacity="1.000000" stroke="none" 
	d="
M951.920044,1145.561523 
	C950.410645,1143.929932 951.129639,1141.668823 951.445435,1139.093018 
	C951.717834,1140.859741 951.850952,1142.986694 951.920044,1145.561523 
z"/>
<path fill="#858585" opacity="1.000000" stroke="none" 
	d="
M1074.262573,1139.164307 
	C1075.145630,1140.940674 1075.180420,1143.177002 1074.381348,1145.719482 
	C1074.130249,1143.873413 1074.116943,1141.738647 1074.262573,1139.164307 
z"/>
<path fill="#858585" opacity="1.000000" stroke="none" 
	d="
M955.920105,1212.562012 
	C954.410645,1210.932983 955.137390,1208.673706 955.442627,1206.101074 
	C955.714539,1207.865479 955.849365,1209.989990 955.920105,1212.562012 
z"/>
<path fill="#808080" opacity="1.000000" stroke="none" 
	d="
M966.918091,1402.567871 
	C965.543518,1401.268555 966.109436,1399.341309 966.433472,1397.103027 
	C966.699951,1398.545532 966.839844,1400.335571 966.918091,1402.567871 
z"/>
<path fill="#808080" opacity="1.000000" stroke="none" 
	d="
M942.922791,999.587524 
	C941.563232,998.296875 942.009888,996.435181 942.620239,994.293213 
	C942.884460,995.726501 942.934998,997.444153 942.922791,999.587524 
z"/>
<path fill="#808080" opacity="1.000000" stroke="none" 
	d="
M946.922852,1066.588135 
	C945.552795,1065.301880 946.035278,1063.444214 946.620972,1061.305176 
	C946.878601,1062.731323 946.932129,1064.447144 946.922852,1066.588135 
z"/>
<path fill="#858585" opacity="1.000000" stroke="none" 
	d="
M1050.258301,1543.145508 
	C1051.112427,1544.607422 1051.161011,1546.524170 1050.380859,1548.734863 
	C1050.128540,1547.198120 1050.113525,1545.387939 1050.258301,1543.145508 
z"/>
<path fill="#858585" opacity="1.000000" stroke="none" 
	d="
M975.920105,1548.565796 
	C974.487671,1547.260254 975.109985,1545.316284 975.448242,1543.066895 
	C975.719482,1544.520630 975.851868,1546.321289 975.920105,1548.565796 
z"/>
<path fill="#808080" opacity="1.000000" stroke="none" 
	d="
M974.921997,1537.570068 
	C973.523499,1536.273193 974.119629,1534.341797 974.433472,1532.103394 
	C974.701660,1533.546387 974.843201,1535.337036 974.921997,1537.570068 
z"/>
<path fill="#808080" opacity="1.000000" stroke="none" 
	d="
M1067.108765,1264.430908 
	C1068.228882,1265.427979 1068.057617,1266.952759 1067.368164,1268.754150 
	C1067.106812,1267.616455 1067.075439,1266.229614 1067.108765,1264.430908 
z"/>
<path fill="#808080" opacity="1.000000" stroke="none" 
	d="
M1047.109619,1600.430420 
	C1048.223633,1601.426270 1048.056519,1602.949097 1047.369629,1604.749756 
	C1047.109741,1603.614014 1047.077759,1602.228027 1047.109619,1600.430420 
z"/>
<path fill="#808080" opacity="1.000000" stroke="none" 
	d="
M1079.109131,1062.431030 
	C1080.229492,1063.428345 1080.066406,1064.952759 1079.368164,1066.754883 
	C1079.106567,1065.616821 1079.075439,1064.229858 1079.109131,1062.431030 
z"/>
<path fill="#858585" opacity="1.000000" stroke="none" 
	d="
M1083.111938,995.432861 
	C1084.243530,996.424316 1084.026611,997.948792 1083.374512,999.743286 
	C1083.114868,998.610168 1083.081543,997.226929 1083.111938,995.432861 
z"/>
<path fill="#808080" opacity="1.000000" stroke="none" 
	d="
M1051.278442,1533.152344 
	C1052.030762,1534.306274 1052.128784,1535.892578 1051.369873,1537.755005 
	C1051.129272,1536.530884 1051.118286,1535.050171 1051.278442,1533.152344 
z"/>
<path fill="#808080" opacity="1.000000" stroke="none" 
	d="
M538.702637,1127.791504 
	C538.000488,1126.652710 538.062683,1125.052979 538.446045,1123.112793 
	C538.658142,1124.306519 538.760620,1125.831421 538.702637,1127.791504 
z"/>
<path fill="#808080" opacity="1.000000" stroke="none" 
	d="
M547.295044,1123.207153 
	C547.993652,1124.343994 547.940247,1125.943970 547.559326,1127.885010 
	C547.345703,1126.692017 547.241699,1125.167603 547.295044,1123.207153 
z"/>
<path fill="#808080" opacity="1.000000" stroke="none" 
	d="
M1478.702515,1127.791504 
	C1478.000366,1126.652710 1478.062744,1125.052856 1478.445801,1123.112549 
	C1478.657959,1124.306274 1478.760498,1125.831421 1478.702515,1127.791504 
z"/>
<path fill="#808080" opacity="1.000000" stroke="none" 
	d="
M1487.295166,1123.207031 
	C1487.993408,1124.344116 1487.940552,1125.944092 1487.559326,1127.885254 
	C1487.345825,1126.691895 1487.241699,1125.167603 1487.295166,1123.207031 
z"/>
<path fill="#808080" opacity="1.000000" stroke="none" 
	d="
M1055.109131,1466.431030 
	C1056.229492,1467.428345 1056.066406,1468.952759 1055.368164,1470.754883 
	C1055.106445,1469.616821 1055.075317,1468.229858 1055.109131,1466.431030 
z"/>
<path fill="#808080" opacity="1.000000" stroke="none" 
	d="
M950.919678,1133.591187 
	C949.656677,1132.625122 950.019714,1131.091675 950.621460,1129.289062 
	C950.878845,1130.408447 950.930420,1131.793823 950.919678,1133.591187 
z"/>
<path fill="#808080" opacity="1.000000" stroke="none" 
	d="
M1075.278564,1129.152100 
	C1076.033813,1130.304199 1076.126099,1131.888550 1075.371094,1133.750488 
	C1075.131836,1132.528687 1075.119751,1131.048828 1075.278564,1129.152100 
z"/>
<path fill="#8A8A8A" opacity="1.000000" stroke="none" 
	d="
M539.923157,1139.628784 
	C538.693726,1138.724487 539.110657,1137.145752 539.120178,1135.264893 
	C540.627686,1136.109619 539.768982,1137.775513 539.923157,1139.628784 
z"/>
<path fill="#8A8A8A" opacity="1.000000" stroke="none" 
	d="
M546.542603,1135.126221 
	C546.768188,1136.398804 546.694824,1137.914917 546.377197,1139.723877 
	C546.169861,1138.467651 546.206726,1136.918701 546.542603,1135.126221 
z"/>
<path fill="#8A8A8A" opacity="1.000000" stroke="none" 
	d="
M1479.923218,1139.628662 
	C1478.693359,1138.724487 1479.111084,1137.145630 1479.120117,1135.264893 
	C1480.627930,1136.109497 1479.768799,1137.775513 1479.923218,1139.628662 
z"/>
<path fill="#808080" opacity="1.000000" stroke="none" 
	d="
M1059.278564,1398.152100 
	C1060.037842,1399.304321 1060.118042,1400.889282 1059.370239,1402.750977 
	C1059.131348,1401.529175 1059.119507,1400.049072 1059.278564,1398.152100 
z"/>
<path fill="#8A8A8A" opacity="1.000000" stroke="none" 
	d="
M1486.542725,1135.126221 
	C1486.768311,1136.398804 1486.694824,1137.914917 1486.377197,1139.723877 
	C1486.169800,1138.467651 1486.206787,1136.918701 1486.542725,1135.126221 
z"/>
<path fill="#808080" opacity="1.000000" stroke="none" 
	d="
M1063.109497,1331.430420 
	C1064.223633,1332.426270 1064.056519,1333.949097 1063.369629,1335.749756 
	C1063.109741,1334.614014 1063.077759,1333.228027 1063.109497,1331.430420 
z"/>
</svg>